<svg xmlns="http://www.w3.org/2000/svg" xmlns:xlink="http://www.w3.org/1999/xlink" width="97" zoomAndPan="magnify" viewBox="0 0 72.75 56.999997" height="76" preserveAspectRatio="xMidYMid meet" version="1.0"><defs><clipPath id="412dc31995"><path d="M 0 0.0976562 L 72.5 0.0976562 L 72.5 56.871094 L 0 56.871094 Z M 0 0.0976562 " clip-rule="nonzero"/></clipPath><clipPath id="ccd39e607e"><path d="M 22.171875 0.0976562 L 68.722656 0.0976562 C 71.246094 0.726562 72.5 1.992188 72.5 3.875 L 72.5 4.8125 C 72.5 6.753906 71.183594 8.011719 68.574219 8.589844 L 23.429688 8.589844 C 16.511719 8.589844 11.738281 11.367188 9.117188 16.917969 C 8.699219 18.207031 8.492188 19.351562 8.492188 20.378906 C 8.492188 25.28125 11.738281 28.949219 18.238281 31.390625 C 20.101562 31.808594 21.933594 32.019531 23.738281 32.019531 L 48.910156 32.019531 C 52.796875 31.730469 54.730469 30.683594 54.730469 28.867188 L 54.730469 28.550781 C 54.203125 26.457031 52.320312 25.402344 49.070312 25.402344 L 20.597656 25.402344 C 17.976562 24.742188 16.664062 23.4375 16.664062 21.464844 L 16.664062 20.835938 C 16.664062 19.082031 17.769531 17.765625 19.972656 16.910156 C 21.046875 16.800781 21.886719 16.75 22.484375 16.75 L 46.867188 16.75 C 55.199219 16.75 61.5 18.742188 65.742188 22.730469 C 70.25 26.894531 72.511719 31.359375 72.511719 36.09375 L 72.511719 37.667969 C 72.511719 43.308594 69.519531 48.34375 63.542969 52.765625 C 59.167969 55.496094 54.921875 56.851562 50.804688 56.851562 L 3.777344 56.851562 C 1.253906 56.246094 0 54.980469 0 53.09375 L 0 52.148438 C 0 50.214844 1.316406 48.949219 3.925781 48.382812 L 48.910156 48.382812 C 55.699219 48.382812 60.421875 45.859375 63.0625 40.828125 C 63.691406 39.492188 64.011719 38.175781 64.011719 36.902344 C 64.011719 35.097656 63.542969 33.574219 62.59375 32.347656 C 61.679688 34.96875 59.785156 37.109375 56.933594 38.792969 C 54.632812 39.949219 52.429688 40.527344 50.335938 40.527344 L 22.171875 40.527344 C 14.917969 40.527344 8.730469 37.429688 3.617188 31.25 C 1.207031 27.773438 0 24.425781 0 21.175781 L 0 19.441406 C 0 13.171875 3.566406 7.722656 10.691406 3.085938 C 14.679688 1.09375 18.507812 0.0976562 22.171875 0.0976562 Z M 22.171875 0.0976562 " clip-rule="nonzero"/></clipPath></defs><g clip-path="url(#412dc31995)"><g clip-path="url(#ccd39e607e)"><path fill="#a6192e" d="M 0 0.0976562 L 72.519531 0.0976562 L 72.519531 56.871094 L 0 56.871094 Z M 0 0.0976562 " fill-opacity="1" fill-rule="nonzero"/></g></g></svg>